<svg xmlns="http://www.w3.org/2000/svg" viewBox="0 0 1200 675" role="img" aria-labelledby="t3 d3">
  <title id="t3">Industrial night incident concept</title>
  <desc id="d3">Drone with sensor layers over plant and smoke</desc>
  <rect width="1200" height="675" fill="#0d0f12"/>
  <rect x="100" y="200" width="320" height="280" rx="4" fill="#1e242c" stroke="#3db8e8" stroke-opacity="0.35"/>
  <rect x="460" y="240" width="280" height="240" rx="4" fill="#252a32" stroke="#e8a317" stroke-opacity="0.3"/>
  <rect x="780" y="220" width="200" height="200" rx="4" fill="#1e242c" opacity="0.85"/>
  <circle cx="520" cy="180" r="120" fill="url(#smoke)" opacity="0.35"/>
  <defs>
    <radialGradient id="smoke"><stop offset="0%" stop-color="#6b7280"/><stop offset="100%" stop-color="transparent"/></radialGradient>
  </defs>
  <g opacity="0.5">
    <path d="M400 400 Q520 320 640 400" stroke="#3db8e8" fill="none" stroke-width="2"/>
    <path d="M420 420 Q540 360 660 420" stroke="#e8a317" fill="none" stroke-width="1.5"/>
  </g>
  <g transform="translate(720 100)">
    <ellipse cx="0" cy="16" rx="38" ry="10" fill="#252a32" stroke="#3db8e8" stroke-width="2"/>
    <rect x="-6" y="-20" width="12" height="32" rx="2" fill="#2a3038" stroke="#e8a317"/>
    <path d="M-28 0 L-6 0 M6 0 L28 0" stroke="#3db8e8" stroke-width="2.5"/>
    <circle cx="-28" cy="0" r="6" fill="#111"/><circle cx="28" cy="0" r="6" fill="#111"/>
    <path d="M0 16 L0 380" stroke="#3db8e8" stroke-width="1.5" opacity="0.4" stroke-dasharray="6 5"/>
  </g>
  <text x="48" y="56" fill="#3db8e8" font-family="system-ui,sans-serif" font-size="22" font-weight="700">Industrial · signal-first</text>
  <text x="48" y="88" fill="#9ca3af" font-family="system-ui,sans-serif" font-size="15">Smoke-limited scene · VitalBee</text>
</svg>
